<?xml version="1.0" encoding="UTF-8" standalone="no"?>
<!-- Generator: Adobe Illustrator 25.2.3, SVG Export Plug-In . SVG Version: 6.00 Build 0)  -->

<svg
   version="1.1"
   id="Shape_logo"
   x="0px"
   y="0px"
   viewBox="0 0 159.9 34.5"
   xml:space="preserve"
   sodipodi:docname="logo-light.svg"
   style="enable-background:new 0 0 159.9 34.5;"
   inkscape:version="1.2.2 (1:1.2.2+202305151914+b0a8486541)"
   xmlns:inkscape="http://www.inkscape.org/namespaces/inkscape"
   xmlns:sodipodi="http://sodipodi.sourceforge.net/DTD/sodipodi-0.dtd"
   xmlns="http://www.w3.org/2000/svg"
   xmlns:svg="http://www.w3.org/2000/svg"><defs
   id="defs11"><linearGradient
     id="linearGradient3415"
     inkscape:swatch="solid"><stop
       style="stop-color:#2163e8;stop-opacity:1;"
       offset="0"
       id="stop3413" /></linearGradient><linearGradient
     id="linearGradient3409"
     inkscape:swatch="solid"><stop
       style="stop-color:#2163e8;stop-opacity:1;"
       offset="0"
       id="stop3407" /></linearGradient><linearGradient
     id="linearGradient975"
     inkscape:swatch="solid"><stop
       style="stop-color:#2163e8;stop-opacity:1;"
       offset="0"
       id="stop973" /></linearGradient><linearGradient
     id="linearGradient969"
     inkscape:swatch="solid"><stop
       style="stop-color:#2163e8;stop-opacity:1;"
       offset="0"
       id="stop967" /></linearGradient><linearGradient
     id="linearGradient963"
     inkscape:swatch="solid"><stop
       style="stop-color:#2163e8;stop-opacity:1;"
       offset="0"
       id="stop961" /></linearGradient></defs><sodipodi:namedview
   id="namedview9"
   pagecolor="#ffffff"
   bordercolor="#000000"
   borderopacity="0.25"
   inkscape:showpageshadow="2"
   inkscape:pageopacity="0.0"
   inkscape:pagecheckerboard="0"
   inkscape:deskcolor="#d1d1d1"
   showgrid="false"
   inkscape:zoom="3.8273922"
   inkscape:cx="78.121076"
   inkscape:cy="37.231617"
   inkscape:window-width="1366"
   inkscape:window-height="654"
   inkscape:window-x="0"
   inkscape:window-y="27"
   inkscape:window-maximized="1"
   inkscape:current-layer="text1069" />
<style
   type="text/css"
   id="style2">
	.st0{fill-rule:evenodd;clip-rule:evenodd;fill:#2163E8;}
	.st1{fill:#2163E8;}
	.st2{font-family:'ArialNarrow-Bold';}
	.st3{font-size:29.6233px;}
</style>


<text
   xml:space="preserve"
   style="font-style:normal;font-variant:normal;font-weight:bold;font-stretch:normal;font-size:19.3081px;font-family:sans-serif;-inkscape-font-specification:'sans-serif, Bold';font-variant-ligatures:normal;font-variant-caps:normal;font-variant-numeric:normal;font-variant-east-asian:normal;fill:#2163e8;fill-opacity:1;stroke:#000000;stroke-width:1.333"
   x="54.86731"
   y="15.542357"
   id="text1013"><tspan
     sodipodi:role="line"
     id="tspan1011" /></text><g
   aria-label="CREDIMUNDO"
   transform="scale(0.79808612,1.2529976)"
   id="text1069"
   style="font-weight:bold;font-size:19.426px;-inkscape-font-specification:'sans-serif, Bold';fill:#2163e8;stroke-width:1.341"><g
     aria-label="CREDIMUNDO"
     transform="scale(0.86292692,1.1588467)"
     id="text2818"
     style="font-size:30.2112px;fill:#ffffff;stroke-width:0.172646"><path
       d="m 18.541027,21.693332 q -1.563666,0.811336 -3.260096,1.224379 -1.696429,0.413044 -3.540375,0.413044 -5.5023327,0 -8.7181734,-3.068325 -3.21584068,-3.083077 -3.21584068,-8.349384 0,-5.28106 3.21584068,-8.3493851 3.2158407,-3.08307661 8.7181734,-3.08307661 1.843946,0 3.540375,0.41304376 1.69643,0.41304375 3.260096,1.22437975 V 6.6762407 Q 16.96261,5.5993766 15.428447,5.0978235 13.894284,4.5962703 12.197855,4.5962703 q -3.0388222,0 -4.7795067,1.9472063 -1.7406844,1.9472063 -1.7406844,5.3695694 0,3.407611 1.7406844,5.354817 1.7406845,1.947206 4.7795067,1.947206 1.696429,0 3.230592,-0.501553 1.534163,-0.501553 3.11258,-1.578417 z"
       id="path2839" /><path
       d="m 31.31588,10.644411 q 1.784939,0 2.55202,-0.6638202 0.781833,-0.6638204 0.781833,-2.1832313 0,-1.5046594 -0.781833,-2.1537282 -0.767081,-0.6490688 -2.55202,-0.6490688 h -2.389754 v 5.6498485 z m -2.389754,3.923916 V 22.90296 H 23.246775 V 0.87887649 h 8.673919 q 4.351711,0 6.372675,1.46040471 2.035716,1.4604047 2.035716,4.6172392 0,2.1832313 -1.062113,3.5846296 -1.047361,1.401399 -3.171586,2.065219 1.165373,0.265528 2.07997,1.209628 0.929349,0.929349 1.873449,2.8323 l 3.083076,6.254663 h -6.04814 L 34.398956,17.43013 Q 33.58762,15.777955 32.746781,15.173141 31.920694,14.568327 30.534047,14.568327 Z"
       id="path2841" /><path
       d="M 46.509991,0.87887649 H 61.836865 V 5.1715813 h -9.647523 v 4.1009345 h 9.072212 v 4.2927052 h -9.072212 v 5.045034 h 9.972057 V 22.90296 H 46.509991 Z"
       id="path2843" /><path
       d="M 72.826778,5.1715813 V 18.610255 h 2.035716 q 3.481369,0 5.310563,-1.725933 1.843945,-1.725933 1.843945,-5.015531 0,-3.2748471 -1.829194,-4.9860284 Q 78.358614,5.1715813 74.862494,5.1715813 Z M 67.147427,0.87887649 h 5.989134 q 5.015532,0 7.464291,0.72282661 2.463511,0.708075 4.218947,2.4192563 1.548914,1.4899078 2.301244,3.4371141 0.752329,1.9472063 0.752329,4.4107175 0,2.493014 -0.752329,4.454972 -0.75233,1.947206 -2.301244,3.437114 -1.770188,1.711181 -4.24845,2.434008 -2.478263,0.708075 -7.434788,0.708075 h -5.989134 z"
       id="path2845" /><path
       d="M 92.225079,0.87887649 H 97.90443 V 22.90296 h -5.679351 z"
       id="path2847" /><path
       d="m 103.46577,0.87887649 h 7.22827 L 115.70957,12.665375 120.7546,0.87887649 h 7.21352 V 22.90296 h -5.36957 V 6.7942532 l -5.07454,11.8750078 h -3.59938 L 108.85009,6.7942532 V 22.90296 h -5.38432 z"
       id="path2849" /><path
       d="m 133.52946,0.87887649 h 5.67935 V 14.081525 q 0,2.729039 0.8851,3.909164 0.89984,1.165374 2.92081,1.165374 2.03571,0 2.92081,-1.165374 0.89984,-1.180125 0.89984,-3.909164 V 0.87887649 h 5.67935 V 14.081525 q 0,4.676246 -2.3455,6.962738 -2.34549,2.286492 -7.1545,2.286492 -4.79426,0 -7.13976,-2.286492 -2.3455,-2.286492 -2.3455,-6.962738 z"
       id="path2851" /><path
       d="m 158.06131,0.87887649 h 6.34317 l 8.0101,15.10560051 V 0.87887649 h 5.38432 V 22.90296 h -6.34317 L 163.44563,7.7973595 V 22.90296 h -5.38432 z"
       id="path2853" /><path
       d="M 189.02484,5.1715813 V 18.610255 h 2.03571 q 3.48137,0 5.31057,-1.725933 1.84394,-1.725933 1.84394,-5.015531 0,-3.2748471 -1.82919,-4.9860284 -1.8292,-1.7111813 -5.32532,-1.7111813 z m -5.67935,-4.29270481 h 5.98913 q 5.01553,0 7.46429,0.72282661 2.46351,0.708075 4.21895,2.4192563 1.54891,1.4899078 2.30124,3.4371141 0.75233,1.9472063 0.75233,4.4107175 0,2.493014 -0.75233,4.454972 -0.75233,1.947206 -2.30124,3.437114 -1.77019,1.711181 -4.24845,2.434008 -2.47826,0.708075 -7.43479,0.708075 h -5.98913 z"
       id="path2855" /><path
       d="m 218.4837,4.5962703 q -2.59627,0 -4.02717,1.9177032 -1.4309,1.9177032 -1.4309,5.3990725 0,3.466617 1.4309,5.38432 1.4309,1.917703 4.02717,1.917703 2.61103,0 4.04193,-1.917703 1.4309,-1.917703 1.4309,-5.38432 0,-3.4813693 -1.4309,-5.3990725 -1.4309,-1.9177032 -4.04193,-1.9177032 z m 0,-4.11568601 q 5.31057,0 8.31989,3.03882191 3.00931,3.038822 3.00931,8.3936398 0,5.340065 -3.00931,8.378887 -3.00932,3.038822 -8.31989,3.038822 -5.29581,0 -8.31988,-3.038822 -3.00932,-3.038822 -3.00932,-8.378887 0,-5.3548178 3.00932,-8.3936398 3.02407,-3.03882191 8.31988,-3.03882191 z"
       id="path2857" /></g></g></svg>
